#!OML:ASF \\sashay\E\Suitcase\Project 1\Capture day 1\Session 1\Male1.ASF
:FULLY-SPECIFIED
:DEGREES
522
root 1.13619 17.2663 0.304905 5.59614 7.51995 5.76953
lowerback 2.95808 -1.88867 -8.28861
upperback -0.672386 -2.83792 -0.289445
thorax -1.97434 -1.31536 4.46556
lowerneck -12.6699 -3.41599 -7.0757
upperneck 21.4551 -3.87238 3.02149
head 9.01854 -2.06965 1.76519
rclavicle 2.09345e-014 2.04748e-014
rhumerus -46.6419 -42.6662 -53.5469
rradius 13.8115
rwrist 7.14191
rhand -10.5519 17.1437
rfingers 7.12502
rthumb 15.4521 -12.2587
lclavicle 2.09345e-014 2.04748e-014
lhumerus -29.6888 -3.76443 86.0744
lradius 41.4949
lwrist -1.44985
lhand -3.7596 42.4681
lfingers 7.12502
lthumb 21.9848 71.2387
rfemur -32.1435 3.15374 10.0939
rtibia 15.6455
rfoot -13.8477 -17.2833
rtoes 2.34482
lfemur 5.75705 -1.9351 -30.4664
ltibia 13.0273
lfoot -19.8909 -11.9838
ltoes -7.46364
523
root 1.13225 17.2494 0.43192 5.5788 7.31804 6.41117
lowerback 3.27506 -1.89344 -9.01061
upperback -0.676403 -2.90746 -0.397665
thorax -2.12012 -1.33447 4.77202
lowerneck -12.6628 -3.51973 -7.188
upperneck 21.7092 -4.04612 3.22538
head 9.12141 -2.14127 1.83378
rclavicle 2.88362e-014 8.15017e-015
rhumerus -48.3083 -43.6979 -51.4761
rradius 13.3666
rwrist 8.99171
rhand -10.4433 16.7948
rfingers 7.12502
rthumb 15.5567 -12.5995
lclavicle 2.88362e-014 8.15017e-015
lhumerus -30.0217 -3.62716 85.9954
lradius 42.0946
lwrist -1.51158
lhand -3.87894 42.6848
lfingers 7.12502
lthumb 21.8702 71.4689
rfemur -32.3088 1.91956 10.1315
rtibia 15.9938
rfoot -12.9605 -16.3136
rtoes 1.69563
lfemur 6.77027 -2.24779 -31.1474
ltibia 12.3347
lfoot -19.543 -12.0468
ltoes -6.72211
524
root 1.12058 17.2327 0.540331 5.72992 7.38905 6.76553
lowerback 3.59694 -1.84903 -9.19291
upperback -0.70968 -2.89686 -0.568844
thorax -2.33859 -1.3162 4.70971
lowerneck -12.7766 -3.33885 -6.91218
upperneck 21.2551 -3.78489 2.99933
head 8.95985 -2.01501 1.73903
rclavicle -1.11319e-014 1.82882e-014
rhumerus -48.8809 -43.2182 -51.424
rradius 13.4689
rwrist 8.40747
rhand -10.3339 16.7385
rfingers 7.12502
rthumb 15.6621 -12.6476
lclavicle -1.11319e-014 1.82882e-014
lhumerus -29.9508 -3.8171 85.9638
lradius 42.5761
lwrist -1.28457
lhand -3.70159 42.7096
lfingers 7.12502
lthumb 22.0405 71.4736
rfemur -32.5099 1.35802 10.0516
rtibia 16.1515
rfoot -12.5905 -16.3312
rtoes 4.63181
lfemur 7.14328 -2.72599 -31.4744
ltibia 12.0437
lfoot -18.3273 -12.6331
ltoes -1.99482
525
root 1.10617 17.2159 0.66158 5.75556 7.50692 6.24047
lowerback 3.69441 -1.84487 -8.69701
upperback -0.608578 -2.86887 -0.371528
thorax -2.30403 -1.31311 4.63948
lowerneck -13.2113 -3.28184 -6.74706
upperneck 21.0432 -3.68436 2.90125
head 8.95619 -1.95889 1.6842
rclavicle 2.82771e-014 2.04748e-014
rhumerus -49.5696 -43.1959 -50.9532
rradius 13.5256
rwrist 8.52986
rhand -10.2024 16.093
rfingers 7.12502
rthumb 15.7888 -13.2831
lclavicle 2.82771e-014 2.04748e-014
lhumerus -30.0121 -3.79042 85.989
lradius 43.0428
lwrist -1.29993
lhand -2.63051 43.1443
lfingers 7.12502
lthumb 23.0685 71.7835
rfemur -32.8495 0.745957 11.1347
rtibia 16.7759
rfoot -11.4495 -16.6094
rtoes 1.26799
lfemur 7.70566 -3.02187 -30.7544
ltibia 11.2469
lfoot -17.3909 -13.46
ltoes 1.07792
526
root 1.08927 17.2117 0.783743 5.75136 7.22762 6.41225
lowerback 3.72812 -1.77246 -8.94098
upperback -0.503422 -2.78201 -0.409613
thorax -2.21683 -1.27386 4.73124
lowerneck -12.1748 -3.22784 -6.86877
upperneck 19.3993 -3.67239 3.09175
head 8.21343 -1.93827 1.77847
rclavicle -1.15419e-014 5.1684e-015
rhumerus -51.116 -43.9571 -49.126
rradius 13.2122
rwrist 9.88529
rhand -10.0349 16.4117
rfingers 7.12502
rthumb 15.9501 -12.9516
lclavicle -1.15419e-014 5.1684e-015
lhumerus -30.2714 -3.98605 85.9475
lradius 43.5219
lwrist -0.881811
lhand -3.92849 42.4527
lfingers 7.12502
lthumb 21.8226 71.2422
rfemur -32.9193 0.866356 11.1669
rtibia 17.0878
rfoot -11.5045 -17.024
rtoes 2.94441
lfemur 8.26276 -2.85118 -30.8574
ltibia 11.0857
lfoot -17.4911 -13.4158
ltoes -1.20059
527
root 1.09501 17.2074 0.922389 5.51072 7.50917 6.58181
lowerback 4.20991 -1.88681 -8.85835
upperback -0.413282 -2.97676 -0.445124
thorax -2.37117 -1.36775 4.67518
lowerneck -11.8461 -3.09318 -7.30122
upperneck 18.3473 -3.54863 3.79842
head 7.81685 -1.83685 2.09945
rclavicle 1.85242e-014 -2.52457e-014
rhumerus -50.9431 -42.5914 -50.0697
rradius 13.4837
rwrist 8.53542
rhand -10.2104 16.0087
rfingers 7.12502
rthumb 15.781 -13.368
lclavicle 1.85242e-014 -2.52457e-014
lhumerus -30.2957 -3.75853 85.9277
lradius 43.6159
lwrist -1.08011
lhand -4.46876 41.8325
lfingers 7.12502
lthumb 21.3038 70.6815
rfemur -32.3731 0.0652488 11.365
rtibia 17.3772
rfoot -11.3467 -16.805
rtoes 3.96062
lfemur 9.16832 -3.04039 -30.9988
ltibia 11.093
lfoot -17.5434 -13.5878
ltoes -1.73982
528
root 1.08027 17.206 1.04653 5.58026 7.62167 6.35672
lowerback 4.54958 -1.86688 -8.54961
upperback -0.557602 -2.97566 -0.38292
thorax -2.72486 -1.35109 4.58704
lowerneck -11.7436 -2.98987 -7.41067
upperneck 18.2793 -3.43495 4.02041
head 7.77442 -1.77004 2.20425
rclavicle -3.86388e-014 -9.93923e-015
rhumerus -52.2902 -42.6799 -48.8362
rradius 13.3984
rwrist 9.19061
rhand -10.3168 16.2456
rfingers 7.12502
rthumb 15.6785 -13.1391
lclavicle -3.86388e-014 -9.93923e-015
lhumerus -30.7761 -4.06677 85.9787
lradius 44.0971
lwrist -0.768845
lhand -2.91346 43.5554
lfingers 7.12502
lthumb 22.797 72.2283
rfemur -32.3444 -0.195417 11.9144
rtibia 17.7068
rfoot -10.9549 -16.6125
rtoes 2.28814
lfemur 9.5841 -3.02294 -30.5807
ltibia 11.1501
lfoot -18.0302 -13.3931
ltoes -5.45906
529
root 1.07071 17.1955 1.17289 5.635 7.72294 6.366
lowerback 4.48011 -1.95347 -8.62935
upperback -0.314164 -3.07027 -0.214098
thorax -2.4046 -1.41787 4.80256
lowerneck -12.5574 -2.71016 -6.99652
upperneck 18.3205 -2.86422 2.98812
head 7.87987 -1.55976 1.84612
rclavicle -9.19379e-015 -1.35174e-014
rhumerus -53.478 -43.8465 -46.5278
rradius 12.6875
rwrist 11.4575
rhand -10.1369 16.2549
rfingers 7.12502
rthumb 15.8519 -13.1162
lclavicle -9.19379e-015 -1.35174e-014
lhumerus -30.6421 -3.70442 86.1135
lradius 44.2571
lwrist -0.451781
lhand -3.92042 42.7308
lfingers 7.12502
lthumb 21.8304 71.5195
rfemur -32.1409 -0.644875 12.23
rtibia 17.9546
rfoot -11.1471 -15.8565
rtoes 2.05993
lfemur 9.92666 -3.27436 -30.5027
ltibia 11.2353
lfoot -17.5961 -13.8993
ltoes -6.14975
530
root 1.05648 17.1862 1.32531 5.81906 7.86081 6.50713
lowerback 4.10619 -2.06735 -8.75405
upperback -0.136037 -3.18092 -0.251773
thorax -1.98774 -1.49598 4.81467
lowerneck -12.5342 -2.6518 -6.62076
upperneck 17.8157 -2.79534 2.67398
head 7.69465 -1.52575 1.68591
rclavicle 3.15571e-015 2.3059e-014
rhumerus -53.6952 -43.5176 -46.6738
rradius 12.6864
rwrist 11.3663
rhand -10.199 15.7791
rfingers 7.12502
rthumb 15.792 -13.5967
lclavicle 3.15571e-015 2.3059e-014
lhumerus -30.7062 -3.79276 85.9773
lradius 44.3485
lwrist -0.190728
lhand -4.10053 42.8644
lfingers 7.12502
lthumb 21.6574 71.6731
rfemur -31.9108 -0.52829 12.1042
rtibia 18.0655
rfoot -11.7589 -15.3855
rtoes 3.06727
lfemur 10.0603 -3.24436 -30.4421
ltibia 11.6459
lfoot -17.2474 -14.4425
ltoes -4.45371
531
root 1.03909 17.1768 1.4677 5.77166 8.07959 6.02009
lowerback 4.28726 -2.17593 -8.23504
upperback -0.158315 -3.31524 -0.0631566
thorax -2.10996 -1.56203 4.73669
lowerneck -12.3315 -2.91579 -6.85372
upperneck 17.4983 -3.2012 3.0792
head 7.58437 -1.69542 1.81626
rclavicle -2.65874e-015 -8.15017e-015
rhumerus -53.88 -42.5333 -46.9428
rradius 12.8635
rwrist 10.6795
rhand -9.7903 15.2701
rfingers 7.12502
rthumb 16.1856 -14.0741
lclavicle -2.65874e-015 -8.15017e-015
lhumerus -31.0855 -3.29096 85.9308
lradius 44.5151
lwrist -0.558455
lhand -3.77228 42.2225
lfingers 7.12502
lthumb 21.9726 70.9946
rfemur -31.5262 0.0168651 12.5893
rtibia 18.2609
rfoot -11.6551 -15.3118
rtoes 3.61774
lfemur 10.4643 -3.50311 -29.8009
ltibia 11.7085
lfoot -16.0735 -14.1192
ltoes -1.50949
532
root 1.03266 17.1731 1.61545 6.13804 8.53829 5.96146
lowerback 3.96733 -2.34995 -8.03254
upperback -0.211868 -3.50762 0.0326171
thorax -1.96436 -1.66473 4.71596
lowerneck -12.1259 -3.07332 -7.08468
upperneck 16.9139 -3.48041 3.62
head 7.38407 -1.79101 2.00369
rclavicle -2.61402e-014 -1.78906e-014
rhumerus -55.3706 -43.0439 -45.0845
rradius 12.6385
rwrist 12.3823
rhand -10.0671 15.8176
rfingers 7.12502
rthumb 15.9191 -13.5481
lclavicle -2.61402e-014 -1.78906e-014
lhumerus -31.5326 -3.42651 86.0409
lradius 44.6155
lwrist -0.295005
lhand -4.28836 42.5612
lfingers 7.12502
lthumb 21.477 71.3906
rfemur -31.2942 -0.476188 12.8743
rtibia 18.3457
rfoot -11.2728 -14.3383
rtoes 0.974126
lfemur 10.5657 -4.24263 -29.5036
ltibia 11.8442
lfoot -14.3012 -14.9743
ltoes 7.2031
